PathFileType	4	(X/Y/Z)	 s09c0402.trc
DataRate	CameraRate	NumFrames	NumMarkers	Units	OrigDataRate	OrigDataStartFrame	OrigNumFrames
200	200	4	50	mm	200	751	2000
Frame#	Time	racr			lacr			c7			jug			rlel			rdr			llel			ldr			s2			lic			ric			lasi			rasi			rpsi			lpsi			rgt			lgt			rth1			rth2			rth3			rth4			rlfc			rmfc			rsh1			rsh2			rsh3			rsh4			rlmal			rmmal			rcal			rtoe			rmt5			lth1			lth2			lth4			lth3			llfc			lmfc			llmal			lmmal			lcal			lmt5			lsh1			lsh2			lsh3			lsh4			ltoe			SBIKE			LBIKE			RBIKE			
		X1	Y1	Z1	X2	Y2	Z2	X3	Y3	Z3	X4	Y4	Z4	X5	Y5	Z5	X6	Y6	Z6	X7	Y7	Z7	X8	Y8	Z8	X9	Y9	Z9	X10	Y10	Z10	X11	Y11	Z11	X12	Y12	Z12	X13	Y13	Z13	X14	Y14	Z14	X15	Y15	Z15	X16	Y16	Z16	X17	Y17	Z17	X18	Y18	Z18	X19	Y19	Z19	X20	Y20	Z20	X21	Y21	Z21	X22	Y22	Z22	X23	Y23	Z23	X24	Y24	Z24	X25	Y25	Z25	X26	Y26	Z26	X27	Y27	Z27	X28	Y28	Z28	X29	Y29	Z29	X30	Y30	Z30	X31	Y31	Z31	X32	Y32	Z32	X33	Y33	Z33	X34	Y34	Z34	X35	Y35	Z35	X36	Y36	Z36	X37	Y37	Z37	X38	Y38	Z38	X39	Y39	Z39	X40	Y40	Z40	X41	Y41	Z41	X42	Y42	Z42	X43	Y43	Z43	X44	Y44	Z44	X45	Y45	Z45	X46	Y46	Z46	X47	Y47	Z47	X48	Y48	Z48	X49	Y49	Z49	X50	Y50	Z50	
751	3.7550	621.628809	1334.564884	-42.941953	704.984766	1318.681036	-413.569364	654.623683	1412.683867	-231.174855	675.123033	1278.538835	-224.471839	528.192963	1091.879543	21.497165	690.130638	912.402919	-45.686626	556.897138	1105.880508	-538.010404	677.202239	904.902832	-458.568982	220.475894	1159.611599	-319.172039	387.652761	1122.819895	-427.814624	336.420135	1174.713416	-144.546719	408.741719	1066.436837	-387.960558	373.299413	1112.315762	-150.589293	239.283516	1198.689381	-258.497731	263.064203	1184.965008	-368.149586	305.828521	1051.729343	-89.655702	312.779195	985.430598	-458.759781	420.338346	969.268299	-84.515197	502.940729	938.596929	-87.929658	555.170051	868.325195	-83.666887	521.145881	959.603539	-111.489288	605.899977	778.586212	-106.305489	587.396097	758.725681	-207.462968	511.702463	739.989328	-79.155173	447.678582	677.925375	-90.311142	362.494703	657.121268	-87.713691	462.624857	655.797674	-119.018138	276.232434	602.448175	-86.729930	282.257164	611.247861	-163.120034	187.402854	621.169050	-120.716891	399.066705	461.777560	-130.909337	324.796466	495.100055	-63.963713	332.549457	854.505200	-450.695153	366.549340	777.370607	-436.757382	401.710193	783.270877	-422.667357	356.410635	688.400533	-425.090333	355.522609	595.962619	-403.247896	358.128330	582.657899	-305.935220	214.339656	258.039393	-405.691791	237.183307	260.690618	-339.251666	143.135538	244.921622	-369.744773	285.988836	146.269232	-430.624853	308.003360	505.794621	-425.121316	300.895853	420.074455	-416.514983	250.166695	347.199535	-413.157028	326.630277	413.613005	-386.413046	377.958331	131.980595	-361.288636	-65.036363	852.937476	-239.261121	20.654669	84.724972	-441.894684	21.067294	84.064678	-43.846685	
752	3.7600	621.110591	1333.271927	-39.874953	706.154004	1318.412221	-409.678585	655.150734	1411.882489	-227.445473	674.947520	1277.555576	-221.160698	526.896133	1090.447483	22.960751	689.824201	912.503458	-44.991711	558.125324	1106.391893	-536.098317	677.757376	904.558604	-458.060541	220.736075	1161.489500	-320.037980	388.680215	1123.955638	-427.490691	335.648028	1176.931271	-144.978739	409.318851	1067.560787	-387.759098	372.400496	1114.307522	-150.036745	239.351918	1200.906431	-259.967175	263.571898	1186.467060	-368.683572	305.550094	1055.057723	-89.833730	313.565369	986.786772	-458.895892	420.253539	972.985169	-85.053915	503.023384	942.865912	-88.504766	555.627583	872.762495	-83.923069	520.914693	963.689945	-112.188386	607.217135	783.043124	-106.583968	588.804781	762.732992	-208.365090	513.488777	743.041147	-79.614997	450.510646	679.757928	-90.631258	365.719962	657.568172	-88.114273	465.933375	657.635064	-119.123942	280.249031	601.446967	-87.256284	285.218537	610.232128	-163.833440	191.458066	617.831240	-121.031252	406.636625	464.060274	-130.590054	331.358623	495.411655	-63.876973	332.685800	855.818398	-451.213438	366.228163	778.322274	-437.260351	401.287376	784.184375	-422.669412	355.653628	689.519037	-426.034581	353.903961	596.886216	-403.584924	356.284510	583.623234	-305.907532	210.443674	260.220087	-406.238559	233.487285	262.373922	-340.355821	139.068572	248.857379	-370.216498	279.718958	146.690925	-430.635911	305.893335	507.401111	-425.376774	298.203601	421.645215	-416.823608	246.942347	349.253733	-413.538678	323.923378	414.970157	-386.788192	370.828686	130.091421	-360.978668	-65.029427	852.962419	-239.173061	20.667072	84.756718	-441.890915	21.066369	84.076657	-43.844635	
753	3.7650	620.684355	1331.939751	-36.845776	707.317845	1317.893919	-405.930218	656.416834	1410.693920	-223.016006	674.714011	1276.421977	-217.822112	525.621843	1089.019673	24.409688	689.584804	912.627547	-44.201682	559.176425	1107.040018	-534.247960	678.272311	904.298123	-457.813608	221.039234	1163.363565	-320.926986	389.614308	1125.139446	-427.011631	334.860247	1178.899747	-145.641145	409.837768	1068.769845	-387.421185	371.335974	1116.437274	-149.776855	238.956876	1202.562362	-259.962627	264.630039	1188.263006	-368.726297	305.678414	1058.503557	-89.496916	314.481880	988.091748	-458.602782	420.071003	976.653742	-85.359222	502.933184	946.923156	-88.943444	555.918028	877.061435	-84.060994	520.214394	967.504351	-112.717494	608.660020	786.921762	-107.200953	591.631155	765.809554	-206.224138	515.494540	745.845215	-80.011396	453.527925	681.289888	-90.720216	368.892430	657.485446	-88.500709	469.130958	659.301089	-119.241931	284.281192	599.828678	-87.873310	288.918889	608.669800	-164.672712	195.175382	614.205035	-121.646471	414.142156	466.067305	-130.108457	337.744895	495.544883	-63.558278	332.987458	857.128460	-451.706449	366.112444	779.500338	-437.672448	401.077444	785.150282	-422.630019	355.225159	690.707999	-426.614259	352.855614	597.903046	-403.981310	355.147628	584.602224	-305.852609	206.686792	262.468850	-406.625639	229.234988	264.188508	-340.477013	134.858294	252.593305	-370.205097	273.177010	147.328298	-430.609477	304.220690	508.924567	-425.525769	295.768051	423.269278	-417.158235	243.858404	351.335817	-414.014026	321.398873	416.264677	-387.043267	363.679855	128.395206	-360.587584	-65.050717	853.007323	-239.060715	20.653710	84.800619	-441.893444	21.075404	84.071326	-43.836902	
754	3.7700	620.276755	1330.511853	-33.952273	708.555135	1317.154472	-402.230347	657.212301	1409.658402	-219.261653	674.414211	1275.073296	-214.514572	524.371025	1087.649077	25.816058	689.374323	912.762814	-43.434901	560.072623	1107.558325	-532.471034	678.603801	904.181452	-457.624406	221.291226	1165.243061	-321.586956	390.328497	1126.956613	-426.515251	334.046063	1180.938458	-145.969343	410.345706	1070.088854	-386.907567	370.492078	1118.388340	-149.251378	238.827681	1204.952621	-260.820372	265.279670	1190.199675	-368.896234	305.406048	1061.575580	-89.577814	315.316397	989.563765	-458.752138	419.710119	980.140122	-85.560307	502.754449	950.754992	-89.289628	555.993987	881.153011	-84.072456	520.961541	971.179804	-113.244202	609.833820	790.224948	-107.503090	593.022046	769.308964	-206.166687	516.287192	747.618516	-80.313579	456.630538	682.453760	-90.454510	371.890836	657.022957	-88.940366	472.141446	660.505261	-119.418519	288.243766	597.868292	-88.471216	292.763293	606.484554	-165.330735	198.905148	610.213244	-122.264549	421.515450	467.812015	-129.647274	343.958812	495.260743	-63.358887	333.466366	858.486056	-452.107220	366.328571	780.749422	-438.019048	401.105776	786.405336	-422.480743	355.157016	692.004078	-427.322274	352.332325	598.898471	-404.281275	354.387446	585.607658	-305.930096	202.779770	265.050648	-407.127933	225.498282	266.247883	-340.522358	130.763248	256.709956	-370.492619	266.742901	148.328810	-430.505335	303.039507	510.313738	-425.738408	293.579990	424.861143	-417.355538	240.898962	353.434627	-414.370399	319.110603	417.587690	-387.272462	356.457227	127.225737	-360.271443	-65.019732	853.053132	-238.931741	20.651671	84.746323	-441.961152	21.067874	84.077270	-43.819187	
